<svg xmlns="http://www.w3.org/2000/svg" viewBox="0 0 64 64" width="64" height="64" fill="none">
  <rect width="64" height="64" rx="16" fill="#ecfdf5"/>
  <g transform="scale(1.6) translate(8, 8)">
    <path d="M12 2C6.48 2 2 6.48 2 12c0 2.17.69 4.19 1.86 5.86L2 22l4.3-1.72C7.9 21.37 9.87 22 12 22c5.52 0 10-4.48 10-10S17.52 2 12 2z" stroke="#10b981" stroke-width="2" stroke-linecap="round" stroke-linejoin="round"/>
    <path d="M15 15.5c-.5.5-1.5-.5-2.5-1.5s-2-2-1.5-2.5.5-1 1-1.5c.5-.5 0-1-.5-1.5s-1-1-1.5-.5-.5 1.5.5 2.5c1 1.5 2.5 3 4 4c1 1 2 1 2.5.5s1-1 1.5-1.5c.5-.5 0-1-.5-1.5s-1-1-1.5-.5-.5 1-1 1.5z" fill="#10b981"/>
  </g>
</svg>
