<svg width="1200" height="800" viewBox="0 0 1200 800" fill="none" xmlns="http://www.w3.org/2000/svg">
  <defs>
    <pattern id="dots" width="18" height="18" patternUnits="userSpaceOnUse">
      <circle cx="3" cy="3" r="1.5" fill="#2374F2" fill-opacity=".22"/>
    </pattern>
    <linearGradient id="route" x1="0" y1="0" x2="1" y2="1">
      <stop stop-color="#2374F2" stop-opacity=".08"/>
      <stop offset=".55" stop-color="#2374F2" stop-opacity=".38"/>
      <stop offset="1" stop-color="#16B364" stop-opacity=".24"/>
    </linearGradient>
  </defs>
  <path d="M725 86C870 14 1055 58 1138 190C1207 299 1167 437 1072 526C976 616 849 629 757 716"
        stroke="url(#route)" stroke-width="2" stroke-dasharray="3 9" stroke-linecap="round"/>
  <path d="M820 31C992 54 1107 175 1117 326C1127 467 1040 576 905 628"
        stroke="#93C5FD" stroke-opacity=".22" stroke-width="1.5"/>
  <rect x="936" y="72" width="226" height="154" fill="url(#dots)" opacity=".66"/>
  <rect x="645" y="598" width="198" height="144" fill="url(#dots)" opacity=".42"/>
  <circle cx="802" cy="54" r="5" fill="#2374F2" fill-opacity=".72"/>
  <circle cx="1130" cy="205" r="5" fill="#16B364" fill-opacity=".72"/>
  <circle cx="927" cy="619" r="4" fill="#2374F2" fill-opacity=".62"/>
</svg>
